<svg xmlns="http://www.w3.org/2000/svg" width="48" height="83" viewBox="0 0 48 83"><g fill="none" stroke="#c8a24c" stroke-width="1.4" stroke-linecap="round"><line x1="-12.0" y1="20.78" x2="24.0" y2="41.57"/><line x1="-96" y1="0.0" x2="-60.0" y2="-20.78"/><line x1="192" y1="83.14" x2="228.0" y2="62.35"/><line x1="-96" y1="-83.14" x2="-96.0" y2="-41.57"/><line x1="-24.0" y1="-41.57" x2="24.0" y2="-41.57"/><line x1="24.0" y1="41.57" x2="48" y2="0.0"/><line x1="-48" y1="166.28" x2="-12.0" y2="145.49"/><line x1="-48" y1="-83.14" x2="-24.0" y2="-41.57"/><line x1="120.0" y1="41.57" x2="120.0" y2="83.14"/><line x1="120.0" y1="-41.57" x2="144" y2="-83.14"/><line x1="36.0" y1="-62.35" x2="72.0" y2="-41.57"/><line x1="192" y1="166.28" x2="228.0" y2="145.49"/><line x1="168.0" y1="124.71" x2="168.0" y2="166.28"/><line x1="-36.0" y1="62.35" x2="0" y2="83.14"/><line x1="48" y1="0.0" x2="48.0" y2="41.57"/><line x1="0" y1="0.0" x2="0.0" y2="41.57"/><line x1="168.0" y1="124.71" x2="192" y2="166.28"/><line x1="144" y1="-83.14" x2="144.0" y2="-41.57"/><line x1="180.0" y1="-62.35" x2="216.0" y2="-41.57"/><line x1="180.0" y1="103.92" x2="216.0" y2="124.71"/><line x1="-36.0" y1="145.49" x2="0" y2="166.28"/><line x1="-96" y1="-83.14" x2="-72.0" y2="-41.57"/><line x1="192" y1="-83.14" x2="240" y2="-83.14"/><line x1="96" y1="166.28" x2="120.0" y2="207.85"/><line x1="144" y1="-83.14" x2="192" y2="-83.14"/><line x1="216.0" y1="124.71" x2="216.0" y2="166.28"/><line x1="24.0" y1="207.85" x2="48" y2="166.28"/><line x1="24.0" y1="-41.57" x2="48" y2="0.0"/><line x1="-24.0" y1="207.85" x2="0" y2="166.28"/><line x1="96" y1="0.0" x2="96.0" y2="41.57"/><line x1="0" y1="83.14" x2="24.0" y2="124.71"/><line x1="-72.0" y1="41.57" x2="-48" y2="83.14"/><line x1="144" y1="0.0" x2="168.0" y2="-41.57"/><line x1="48" y1="83.14" x2="96" y2="83.14"/><line x1="-72.0" y1="-41.57" x2="-48" y2="0.0"/><line x1="144" y1="0.0" x2="168.0" y2="41.57"/><line x1="-72.0" y1="124.71" x2="-48" y2="166.28"/><line x1="-72.0" y1="41.57" x2="-48" y2="0.0"/><line x1="0" y1="166.28" x2="36.0" y2="145.49"/><line x1="24.0" y1="41.57" x2="60.0" y2="20.78"/><line x1="48" y1="0.0" x2="84.0" y2="-20.78"/><line x1="120.0" y1="124.71" x2="144" y2="166.28"/><line x1="192" y1="83.14" x2="216.0" y2="41.57"/><line x1="72.0" y1="41.57" x2="72.0" y2="83.14"/><line x1="-120.0" y1="41.57" x2="-96" y2="0.0"/><line x1="168.0" y1="41.57" x2="216.0" y2="41.57"/><line x1="0" y1="83.14" x2="48" y2="83.14"/><line x1="0" y1="-83.14" x2="24.0" y2="-41.57"/><line x1="12.0" y1="-20.78" x2="48" y2="0.0"/><line x1="132.0" y1="103.92" x2="168.0" y2="124.71"/><line x1="72.0" y1="-41.57" x2="108.0" y2="-62.35"/><line x1="0" y1="166.28" x2="24.0" y2="207.85"/><line x1="-72.0" y1="124.71" x2="-24.0" y2="124.71"/><line x1="84.0" y1="20.78" x2="120.0" y2="41.57"/><line x1="-48" y1="83.14" x2="-24.0" y2="41.57"/><line x1="204.0" y1="62.35" x2="240" y2="83.14"/><line x1="-48" y1="-83.14" x2="0" y2="-83.14"/><line x1="96" y1="0.0" x2="120.0" y2="41.57"/><line x1="-96" y1="83.14" x2="-48" y2="83.14"/><line x1="120.0" y1="124.71" x2="156.0" y2="103.92"/><line x1="144" y1="83.14" x2="192" y2="83.14"/><line x1="-96" y1="166.28" x2="-72.0" y2="124.71"/><line x1="-48" y1="166.28" x2="0" y2="166.28"/><line x1="60.0" y1="145.49" x2="96" y2="166.28"/><line x1="24.0" y1="41.57" x2="48" y2="83.14"/><line x1="156.0" y1="-20.78" x2="192" y2="0.0"/><line x1="24.0" y1="-41.57" x2="60.0" y2="-62.35"/><line x1="0" y1="0.0" x2="48" y2="0.0"/><line x1="48" y1="83.14" x2="72.0" y2="41.57"/><line x1="144" y1="0.0" x2="192" y2="0.0"/><line x1="192" y1="83.14" x2="216.0" y2="124.71"/><line x1="0" y1="83.14" x2="24.0" y2="41.57"/><line x1="-120.0" y1="124.71" x2="-84.0" y2="103.92"/><line x1="96" y1="0.0" x2="132.0" y2="-20.78"/><line x1="120.0" y1="41.57" x2="168.0" y2="41.57"/><line x1="-24.0" y1="124.71" x2="-24.0" y2="166.28"/><line x1="-24.0" y1="41.57" x2="12.0" y2="20.78"/><line x1="0" y1="0.0" x2="24.0" y2="-41.57"/><line x1="72.0" y1="207.85" x2="108.0" y2="187.06"/><line x1="-48" y1="0.0" x2="-48.0" y2="41.57"/><line x1="168.0" y1="-41.57" x2="216.0" y2="-41.57"/><line x1="-120.0" y1="-41.57" x2="-96" y2="-83.14"/><line x1="48" y1="83.14" x2="48.0" y2="124.71"/><line x1="24.0" y1="-41.57" x2="24.0" y2="0.0"/><line x1="120.0" y1="41.57" x2="144" y2="83.14"/><line x1="-24.0" y1="-41.57" x2="-24.0" y2="0.0"/><line x1="48" y1="-83.14" x2="72.0" y2="-41.57"/><line x1="96" y1="166.28" x2="132.0" y2="145.49"/><line x1="-48" y1="166.28" x2="-48.0" y2="207.85"/><line x1="96" y1="83.14" x2="144" y2="83.14"/><line x1="216.0" y1="41.57" x2="216.0" y2="83.14"/><line x1="-96" y1="-83.14" x2="-48" y2="-83.14"/><line x1="-84.0" y1="145.49" x2="-48" y2="166.28"/><line x1="-48" y1="83.14" x2="0" y2="83.14"/><line x1="-60.0" y1="-62.35" x2="-24.0" y2="-41.57"/><line x1="-24.0" y1="124.71" x2="0" y2="83.14"/><line x1="24.0" y1="-41.57" x2="72.0" y2="-41.57"/><line x1="-96" y1="0.0" x2="-96.0" y2="41.57"/><line x1="72.0" y1="41.57" x2="108.0" y2="20.78"/><line x1="-96" y1="166.28" x2="-60.0" y2="145.49"/><line x1="120.0" y1="124.71" x2="120.0" y2="166.28"/><line x1="-108.0" y1="187.06" x2="-72.0" y2="207.85"/><line x1="144" y1="166.28" x2="168.0" y2="207.85"/><line x1="96" y1="-83.14" x2="120.0" y2="-41.57"/><line x1="0" y1="83.14" x2="36.0" y2="62.35"/><line x1="144" y1="83.14" x2="168.0" y2="41.57"/><line x1="-24.0" y1="-41.57" x2="0" y2="-83.14"/><line x1="24.0" y1="124.71" x2="48" y2="166.28"/><line x1="48" y1="166.28" x2="72.0" y2="124.71"/><line x1="192" y1="0.0" x2="192.0" y2="41.57"/><line x1="24.0" y1="207.85" x2="60.0" y2="187.06"/><line x1="0" y1="-83.14" x2="0.0" y2="-41.57"/><line x1="192" y1="-83.14" x2="216.0" y2="-41.57"/><line x1="-72.0" y1="207.85" x2="-36.0" y2="187.06"/><line x1="192" y1="83.14" x2="240" y2="83.14"/><line x1="144" y1="-83.14" x2="168.0" y2="-41.57"/><line x1="0" y1="166.28" x2="0.0" y2="207.85"/><line x1="-48" y1="0.0" x2="-12.0" y2="-20.78"/><line x1="108.0" y1="145.49" x2="144" y2="166.28"/><line x1="144" y1="83.14" x2="144.0" y2="124.71"/><line x1="-72.0" y1="-41.57" x2="-48" y2="-83.14"/><line x1="120.0" y1="-41.57" x2="168.0" y2="-41.57"/><line x1="-108.0" y1="20.78" x2="-72.0" y2="41.57"/><line x1="144" y1="83.14" x2="180.0" y2="62.35"/><line x1="168.0" y1="124.71" x2="204.0" y2="103.92"/><line x1="-48" y1="83.14" x2="-48.0" y2="124.71"/><line x1="168.0" y1="41.57" x2="168.0" y2="83.14"/><line x1="72.0" y1="-41.57" x2="120.0" y2="-41.57"/><line x1="120.0" y1="-41.57" x2="144" y2="0.0"/><line x1="96" y1="83.14" x2="96.0" y2="124.71"/><line x1="216.0" y1="41.57" x2="264.0" y2="41.57"/><line x1="-96" y1="0.0" x2="-72.0" y2="41.57"/><line x1="24.0" y1="-41.57" x2="48" y2="-83.14"/><line x1="72.0" y1="124.71" x2="108.0" y2="103.92"/><line x1="168.0" y1="41.57" x2="192" y2="83.14"/><line x1="192" y1="83.14" x2="192.0" y2="124.71"/><line x1="-48" y1="-83.14" x2="-48.0" y2="-41.57"/><line x1="-48" y1="166.28" x2="-24.0" y2="124.71"/><line x1="-72.0" y1="41.57" x2="-36.0" y2="20.78"/><line x1="120.0" y1="41.57" x2="156.0" y2="20.78"/><line x1="120.0" y1="124.71" x2="168.0" y2="124.71"/><line x1="72.0" y1="41.57" x2="96" y2="0.0"/><line x1="72.0" y1="41.57" x2="96" y2="83.14"/><line x1="-72.0" y1="124.71" x2="-36.0" y2="103.92"/><line x1="48" y1="166.28" x2="84.0" y2="145.49"/><line x1="96" y1="166.28" x2="144" y2="166.28"/><line x1="0" y1="-83.14" x2="48" y2="-83.14"/><line x1="144" y1="166.28" x2="144.0" y2="207.85"/><line x1="156.0" y1="145.49" x2="192" y2="166.28"/><line x1="216.0" y1="-41.57" x2="240" y2="0.0"/><line x1="72.0" y1="207.85" x2="96" y2="166.28"/><line x1="-120.0" y1="41.57" x2="-84.0" y2="20.78"/><line x1="72.0" y1="-41.57" x2="96" y2="0.0"/><line x1="-48" y1="0.0" x2="-24.0" y2="-41.57"/><line x1="-60.0" y1="187.06" x2="-24.0" y2="207.85"/><line x1="0" y1="166.28" x2="24.0" y2="124.71"/><line x1="48" y1="-83.14" x2="96" y2="-83.14"/><line x1="96" y1="83.14" x2="120.0" y2="124.71"/><line x1="-120.0" y1="207.85" x2="-84.0" y2="187.06"/><line x1="-72.0" y1="-41.57" x2="-36.0" y2="-62.35"/><line x1="-120.0" y1="207.85" x2="-96" y2="166.28"/><line x1="84.0" y1="103.92" x2="120.0" y2="124.71"/><line x1="60.0" y1="62.35" x2="96" y2="83.14"/><line x1="48" y1="83.14" x2="84.0" y2="62.35"/><line x1="0" y1="166.28" x2="48" y2="166.28"/><line x1="-96" y1="0.0" x2="-48" y2="0.0"/><line x1="120.0" y1="41.57" x2="144" y2="0.0"/><line x1="-72.0" y1="41.57" x2="-72.0" y2="83.14"/><line x1="72.0" y1="124.71" x2="96" y2="83.14"/><line x1="-24.0" y1="124.71" x2="0" y2="166.28"/><line x1="-72.0" y1="-41.57" x2="-72.0" y2="0.0"/><line x1="168.0" y1="-41.57" x2="192" y2="0.0"/><line x1="36.0" y1="20.78" x2="72.0" y2="41.57"/><line x1="144" y1="0.0" x2="144.0" y2="41.57"/><line x1="-96" y1="0.0" x2="-72.0" y2="-41.57"/><line x1="-72.0" y1="124.71" x2="-72.0" y2="166.28"/><line x1="144" y1="166.28" x2="168.0" y2="124.71"/><line x1="168.0" y1="207.85" x2="192" y2="166.28"/><line x1="48" y1="0.0" x2="72.0" y2="41.57"/><line x1="48" y1="166.28" x2="72.0" y2="207.85"/><line x1="-24.0" y1="-41.57" x2="0" y2="0.0"/><line x1="-12.0" y1="-62.35" x2="24.0" y2="-41.57"/><line x1="168.0" y1="-41.57" x2="168.0" y2="0.0"/><line x1="0" y1="0.0" x2="24.0" y2="41.57"/><line x1="108.0" y1="62.35" x2="144" y2="83.14"/><line x1="24.0" y1="124.71" x2="48" y2="83.14"/><line x1="48" y1="166.28" x2="96" y2="166.28"/><line x1="12.0" y1="62.35" x2="48" y2="83.14"/><line x1="-108.0" y1="-62.35" x2="-72.0" y2="-41.57"/><line x1="-24.0" y1="124.71" x2="24.0" y2="124.71"/><line x1="-72.0" y1="207.85" x2="-48" y2="166.28"/><line x1="-12.0" y1="187.06" x2="24.0" y2="207.85"/><line x1="180.0" y1="20.78" x2="216.0" y2="41.57"/><line x1="96" y1="-83.14" x2="144" y2="-83.14"/><line x1="-24.0" y1="124.71" x2="12.0" y2="103.92"/><line x1="60.0" y1="-20.78" x2="96" y2="0.0"/><line x1="-24.0" y1="41.57" x2="-24.0" y2="83.14"/><line x1="168.0" y1="124.71" x2="216.0" y2="124.71"/><line x1="192" y1="0.0" x2="216.0" y2="41.57"/><line x1="192" y1="166.28" x2="216.0" y2="207.85"/><line x1="96" y1="83.14" x2="132.0" y2="62.35"/><line x1="216.0" y1="-41.57" x2="216.0" y2="0.0"/><line x1="-24.0" y1="41.57" x2="24.0" y2="41.57"/><line x1="96" y1="166.28" x2="120.0" y2="124.71"/><line x1="-120.0" y1="-41.57" x2="-84.0" y2="-62.35"/><line x1="120.0" y1="207.85" x2="144" y2="166.28"/><line x1="72.0" y1="124.71" x2="120.0" y2="124.71"/><line x1="24.0" y1="41.57" x2="24.0" y2="83.14"/><line x1="84.0" y1="187.06" x2="120.0" y2="207.85"/><line x1="-24.0" y1="41.57" x2="0" y2="0.0"/><line x1="-84.0" y1="-20.78" x2="-48" y2="0.0"/><line x1="192" y1="166.28" x2="240" y2="166.28"/><line x1="216.0" y1="41.57" x2="240" y2="83.14"/><line x1="168.0" y1="41.57" x2="192" y2="0.0"/><line x1="180.0" y1="187.06" x2="216.0" y2="207.85"/><line x1="144" y1="166.28" x2="180.0" y2="145.49"/><line x1="192" y1="0.0" x2="228.0" y2="-20.78"/><line x1="168.0" y1="-41.57" x2="204.0" y2="-62.35"/><line x1="72.0" y1="41.57" x2="120.0" y2="41.57"/><line x1="168.0" y1="207.85" x2="204.0" y2="187.06"/><line x1="48" y1="0.0" x2="96" y2="0.0"/><line x1="0" y1="83.14" x2="0.0" y2="124.71"/><line x1="-96" y1="83.14" x2="-96.0" y2="124.71"/><line x1="-24.0" y1="-41.57" x2="12.0" y2="-62.35"/><line x1="132.0" y1="-62.35" x2="168.0" y2="-41.57"/><line x1="48" y1="-83.14" x2="48.0" y2="-41.57"/><line x1="72.0" y1="-41.57" x2="72.0" y2="0.0"/><line x1="84.0" y1="-62.35" x2="120.0" y2="-41.57"/><line x1="-72.0" y1="-41.57" x2="-24.0" y2="-41.57"/><line x1="48" y1="166.28" x2="48.0" y2="207.85"/><line x1="-48" y1="83.14" x2="-24.0" y2="124.71"/><line x1="156.0" y1="62.35" x2="192" y2="83.14"/><line x1="72.0" y1="124.71" x2="72.0" y2="166.28"/><line x1="24.0" y1="124.71" x2="24.0" y2="166.28"/><line x1="72.0" y1="-41.57" x2="96" y2="-83.14"/><line x1="192" y1="-83.14" x2="192.0" y2="-41.57"/><line x1="-96" y1="83.14" x2="-60.0" y2="62.35"/><line x1="168.0" y1="124.71" x2="192" y2="83.14"/><line x1="96" y1="-83.14" x2="96.0" y2="-41.57"/><line x1="-96" y1="83.14" x2="-72.0" y2="41.57"/><line x1="120.0" y1="-41.57" x2="156.0" y2="-62.35"/><line x1="132.0" y1="20.78" x2="168.0" y2="41.57"/><line x1="72.0" y1="124.71" x2="96" y2="166.28"/><line x1="-48" y1="0.0" x2="-24.0" y2="41.57"/><line x1="-96" y1="166.28" x2="-48" y2="166.28"/><line x1="-96" y1="83.14" x2="-72.0" y2="124.71"/><line x1="96" y1="166.28" x2="96.0" y2="207.85"/><line x1="-24.0" y1="207.85" x2="12.0" y2="187.06"/><line x1="48" y1="83.14" x2="72.0" y2="124.71"/><line x1="48" y1="0.0" x2="72.0" y2="-41.57"/><line x1="-72.0" y1="41.57" x2="-24.0" y2="41.57"/><line x1="-96" y1="166.28" x2="-96.0" y2="207.85"/><line x1="192" y1="166.28" x2="192.0" y2="207.85"/><line x1="12.0" y1="145.49" x2="48" y2="166.28"/><line x1="204.0" y1="-20.78" x2="240" y2="0.0"/><line x1="96" y1="0.0" x2="144" y2="0.0"/><line x1="-48" y1="166.28" x2="-24.0" y2="207.85"/><line x1="216.0" y1="-41.57" x2="264.0" y2="-41.57"/><line x1="168.0" y1="41.57" x2="204.0" y2="20.78"/><line x1="144" y1="166.28" x2="192" y2="166.28"/><line x1="-60.0" y1="103.92" x2="-24.0" y2="124.71"/><line x1="120.0" y1="-41.57" x2="120.0" y2="0.0"/><line x1="192" y1="0.0" x2="240" y2="0.0"/><line x1="-72.0" y1="124.71" x2="-48" y2="83.14"/><line x1="-36.0" y1="-20.78" x2="0" y2="0.0"/><line x1="96" y1="0.0" x2="120.0" y2="-41.57"/><line x1="204.0" y1="145.49" x2="240" y2="166.28"/><line x1="120.0" y1="124.71" x2="144" y2="83.14"/><line x1="192" y1="0.0" x2="216.0" y2="-41.57"/><line x1="168.0" y1="-41.57" x2="192" y2="-83.14"/><line x1="216.0" y1="124.71" x2="240" y2="166.28"/><line x1="36.0" y1="187.06" x2="72.0" y2="207.85"/><line x1="-60.0" y1="20.78" x2="-24.0" y2="41.57"/><line x1="-108.0" y1="103.92" x2="-72.0" y2="124.71"/><line x1="192" y1="166.28" x2="216.0" y2="124.71"/><line x1="36.0" y1="103.92" x2="72.0" y2="124.71"/><line x1="-84.0" y1="62.35" x2="-48" y2="83.14"/><line x1="24.0" y1="124.71" x2="72.0" y2="124.71"/><line x1="132.0" y1="187.06" x2="168.0" y2="207.85"/><line x1="120.0" y1="207.85" x2="156.0" y2="187.06"/><line x1="-48" y1="83.14" x2="-12.0" y2="62.35"/><line x1="0" y1="0.0" x2="36.0" y2="-20.78"/><line x1="96" y1="83.14" x2="120.0" y2="41.57"/><line x1="144" y1="0.0" x2="180.0" y2="-20.78"/><line x1="-12.0" y1="103.92" x2="24.0" y2="124.71"/><line x1="24.0" y1="124.71" x2="60.0" y2="103.92"/><line x1="-24.0" y1="41.57" x2="0" y2="83.14"/><line x1="-120.0" y1="124.71" x2="-96" y2="83.14"/><line x1="144" y1="83.14" x2="168.0" y2="124.71"/><line x1="-96" y1="166.28" x2="-72.0" y2="207.85"/><line x1="24.0" y1="41.57" x2="72.0" y2="41.57"/><line x1="-48" y1="0.0" x2="0" y2="0.0"/><line x1="108.0" y1="-20.78" x2="144" y2="0.0"/><line x1="216.0" y1="124.71" x2="264.0" y2="124.71"/></g></svg>